# xmcd
#
# Track frame offsets:
#	150
#	14070
#	27673
#	37729
#	47339
#	58565
#	69886
#	80939
#	94696
#	105592
#	115405
#	129548
#
# Disc length: 1860 seconds
#
# Revision: 0
# Processed by: cddbd v1.5.2PL0 Copyright (c) Steve Scherf et al.
# Submitted via: EasyCDDAExtractor 16.0.6.1
#
DISCID=9b07420c
DTITLE=Συλλογικός δίσκος - Πικρές αλήθειες-LP, Πέτρος Γιαννακός
DYEAR=1974
DGENRE=Έντεχνη λαϊκή
TTITLE0=Χωματά Καίτη - Εδώ πολυτεχνείο
TTITLE1=Χαμηλοθώρης Βασίλης - Εξόριστοι
TTITLE2=Γιαννακός Πέτρος - Άνθρωπε μη βαρυγομάς
TTITLE3=Μαρινίδης Νίκος - Αυτός ο τόπος
TTITLE4=Μπιλαδέρη Μαρίνα - Συμφωνία των τρελλών
TTITLE5=Χωματά Καίτη - Βρέξε καλοσύνη
TTITLE6=Χωματά Καίτη - Τα χέρια
TTITLE7=Γιαννακός Πέτρος - Άγαλμα της ελευθερίας
TTITLE8=Μπιλαδέρη Μαρίνα - Έρημη μάννα
TTITLE9=Χαμηλοθώρης Βασίλης - Κύπρος μας
TTITLE10=Μαρινίδης Νίκος - Ο Νικολός
TTITLE11=Χωματά Καίτη - Χτυπούν την Ρωμιοσύνη
EXTD=
EXTT0=
EXTT1=
EXTT2=
EXTT3=
EXTT4=
EXTT5=
EXTT6=
EXTT7=
EXTT8=
EXTT9=
EXTT10=
EXTT11=
PLAYORDER=
